<?xml version="1.0" encoding="UTF-8" standalone="no"?>
<svg
   version="1.1"
   width="512"
   height="512"
   id="svg3"
   sodipodi:docname="favicon.svg"
   inkscape:version="1.4.2 (f4327f4, 2025-05-13)"
   xmlns:inkscape="http://www.inkscape.org/namespaces/inkscape"
   xmlns:sodipodi="http://sodipodi.sourceforge.net/DTD/sodipodi-0.dtd"
   xmlns="http://www.w3.org/2000/svg"
   xmlns:svg="http://www.w3.org/2000/svg">
  <defs
     id="defs3" />
  <sodipodi:namedview
     id="namedview3"
     pagecolor="#ffffff"
     bordercolor="#000000"
     borderopacity="0.25"
     inkscape:showpageshadow="2"
     inkscape:pageopacity="0.0"
     inkscape:pagecheckerboard="0"
     inkscape:deskcolor="#d1d1d1"
     showgrid="false"
     inkscape:zoom="1.5761719"
     inkscape:cx="255.68278"
     inkscape:cy="256"
     inkscape:window-width="1920"
     inkscape:window-height="1009"
     inkscape:window-x="-8"
     inkscape:window-y="-8"
     inkscape:window-maximized="1"
     inkscape:current-layer="svg3" />
  <path
     d="M0 0 C1.80833454 -0.00735473 3.61666442 -0.015945 5.42498779 -0.02566528 C10.29874312 -0.04773253 15.17232867 -0.05081976 20.04612708 -0.04891777 C24.12676084 -0.04879748 28.20735937 -0.05738466 32.28798324 -0.06569529 C41.9161342 -0.08487283 51.54419846 -0.08783246 61.17236328 -0.08105469 C71.08540213 -0.07440482 80.99806976 -0.09732931 90.91103333 -0.13436842 C99.44643465 -0.16509602 107.98171666 -0.17642252 116.51717216 -0.1725316 C121.60464275 -0.17046879 126.6918237 -0.17587256 131.77924156 -0.20042419 C136.56066453 -0.22274192 141.34148342 -0.22077183 146.12290955 -0.20049667 C147.87157476 -0.1970965 149.6202811 -0.20213273 151.36889076 -0.21648026 C169.18447733 -0.35251614 169.18447733 -0.35251614 176.70043945 5.41992188 C182.38274371 11.4603596 183.06773522 17.12413205 182.9699707 25.12304688 C182.5106819 30.74101423 180.91792512 34.38536762 176.7590332 38.20117188 C171.33382203 42.43743253 167.62057784 43.54395625 160.68063354 43.56468201 C159.60213062 43.56997228 159.60213062 43.56997228 158.50183976 43.57536942 C156.08609959 43.58606657 153.67039885 43.58973922 151.25463867 43.59350586 C149.52497694 43.59981056 147.79531683 43.60657626 146.06565857 43.61376953 C142.33666192 43.62844821 138.60767157 43.64016962 134.87865829 43.64971733 C128.97824921 43.66516528 123.07789384 43.689116 117.17752075 43.71461487 C100.39743445 43.78582419 83.61731707 43.8455327 66.8371582 43.89672852 C57.57275515 43.92506933 48.30840524 43.96047341 39.04405797 44.00338227 C33.18333345 44.03010118 27.32266906 44.04803963 21.4618957 44.05941951 C17.8067533 44.06857393 14.15168357 44.08594963 10.49658394 44.10559845 C8.80718827 44.11304453 7.11777392 44.11715323 5.42836189 44.11759377 C-9.59390657 43.48968285 -9.59390657 43.48968285 -22.67456055 49.54492188 C-23.30104492 50.08375 -23.9275293 50.62257812 -24.57299805 51.17773438 C-29.89036199 58.08308936 -29.72869969 65.56885199 -29.68051147 73.90710449 C-29.68519145 75.15377883 -29.68987142 76.40045318 -29.69469321 77.68490553 C-29.70456154 81.12904042 -29.70104713 84.57268183 -29.69173455 88.01678634 C-29.68493175 91.73736852 -29.69543138 95.45790836 -29.70367432 99.17848206 C-29.71700074 106.46063573 -29.71413879 113.74269654 -29.70543639 121.02485383 C-29.69865596 126.94422487 -29.69774468 132.86356992 -29.70100784 138.78294373 C-29.70146754 139.6260352 -29.70192724 140.46912668 -29.70240087 141.33776638 C-29.70336007 143.05059326 -29.70433271 144.76342014 -29.70531864 146.47624701 C-29.71386934 162.53019391 -29.70404343 178.58408938 -29.68791755 194.63802785 C-29.67451465 208.40731124 -29.67684284 222.17651876 -29.69067383 235.94580078 C-29.7067353 251.94305498 -29.7130454 267.94026413 -29.70383704 283.93752527 C-29.70288141 285.64398352 -29.7019383 287.35044177 -29.70100784 289.05690002 C-29.70054502 289.89646806 -29.70008219 290.73603609 -29.69960534 291.60104558 C-29.69701715 297.51199042 -29.70138275 303.42290664 -29.7084465 309.33384705 C-29.716868 316.53920202 -29.71456772 323.74445898 -29.69860427 330.94980276 C-29.69073027 334.62473785 -29.687615 338.29950962 -29.69755173 341.97444344 C-29.7081669 345.96063402 -29.69547546 349.94655827 -29.68051147 353.93273926 C-29.68720364 355.0907188 -29.6938958 356.24869834 -29.70079076 357.44176817 C-29.6449312 365.10628374 -29.04347688 371.17054727 -23.92456055 377.23242188 C-18.41138913 381.82673139 -14.1818134 383.541716 -7.06641769 383.55134964 C-5.46821831 383.55711136 -5.46821831 383.55711136 -3.83773208 383.56298947 C-2.66810117 383.56212299 -1.49847026 383.56125651 -0.293396 383.56036377 C0.94986065 383.56333489 2.19311729 383.56630601 3.47404838 383.56936717 C6.92706134 383.57654856 10.38002456 383.57922657 13.83304143 383.57996464 C17.55640931 383.58181571 21.27976641 383.58936332 25.00312805 383.59609985 C33.14572915 383.60968155 41.28832532 383.61570763 49.43093586 383.62011051 C54.51527575 383.6228732 59.59961373 383.6271106 64.68395233 383.63161469 C78.76118475 383.64380711 92.83841564 383.65410649 106.91565323 383.65748978 C107.81662168 383.65770934 108.71759013 383.65792891 109.64586066 383.65815513 C110.54898372 383.65837341 111.45210678 383.65859168 112.38259721 383.65881658 C114.21266572 383.65926004 116.04273423 383.65970661 117.87280273 383.66015625 C118.78057975 383.66037768 119.68835677 383.66059911 120.62364218 383.66082725 C135.3325872 383.66477519 150.04148268 383.68222921 164.75040856 383.70551577 C179.85206152 383.72923109 194.95368962 383.74169171 210.05536151 383.74285769 C218.53430298 383.74377435 227.01317989 383.74952429 235.49210358 383.76767731 C242.71218197 383.78308072 249.93217585 383.78819734 257.15226755 383.7799392 C260.83528474 383.77603355 264.51813177 383.77695804 268.20112801 383.79099655 C272.19632158 383.80608565 276.19113203 383.79786652 280.18634033 383.78741455 C281.34704835 383.79547096 282.50775637 383.80352736 283.70363736 383.8118279 C290.93145251 383.76755771 297.02014469 383.25387707 302.94262695 378.69335938 C303.48145508 378.066875 304.0202832 377.44039063 304.57543945 376.79492188 C305.12973633 376.18390625 305.6840332 375.57289063 306.25512695 374.94335938 C311.1454136 366.40518324 309.97421281 355.69947938 309.93994141 346.18530273 C309.94105563 344.44328225 309.94311554 342.70126215 309.94604492 340.95924377 C309.95075045 337.22214089 309.94966459 333.48510093 309.94426918 329.74799919 C309.93663487 323.83476641 309.9473417 317.92165384 309.96147156 312.00843811 C309.99914395 295.19857282 310.0173915 278.38876308 310.00585938 261.57885742 C309.99964008 252.2839782 310.01123443 242.98929407 310.04230469 233.69446284 C310.06093631 227.81989215 310.05766309 221.94587511 310.03813708 216.07131374 C310.03124518 212.41395726 310.0452317 208.75689974 310.06508636 205.09959984 C310.07012402 203.40815824 310.06667361 201.71666601 310.05395317 200.02526474 C309.93810194 183.43792152 309.93810194 183.43792152 315.70043945 177.41992188 C320.83725843 172.6589677 324.56248958 171.13004429 331.57543945 171.10742188 C332.76911133 171.09066406 333.9627832 171.07390625 335.19262695 171.05664062 C341.54114461 171.71411517 345.64534309 174.61783407 349.70043945 179.41992188 C355.12460271 187.28686445 354.25695818 195.93422102 354.20214844 205.10424805 C354.20593498 206.90697653 354.21143779 208.70970211 354.21852112 210.51242065 C354.23245421 215.3950198 354.22131872 220.27726567 354.2048099 225.15984511 C354.19092203 230.28269818 354.19742414 235.40553149 354.20094299 240.52839661 C354.20364338 249.13560651 354.1901884 257.74267684 354.16699219 266.34985352 C354.14042585 276.27571456 354.13862259 286.20134167 354.15038055 296.12722605 C354.16119543 305.69963243 354.1549395 315.27195488 354.14082527 324.84435463 C354.13509331 328.90582597 354.13512618 332.96723532 354.13989067 337.0287075 C354.14469581 341.82310598 354.13441365 346.61725155 354.11293602 351.41160202 C354.10741426 353.16221451 354.10685993 354.91285153 354.11188889 356.6634655 C354.16242008 376.79224522 350.0998501 394.39102879 335.70043945 409.41992188 C322.13463752 422.41752268 305.76522157 427.90325788 287.27198792 427.8008728 C285.96023572 427.80555277 284.64848353 427.81023275 283.29698128 427.81505454 C279.6850165 427.82749402 276.07329174 427.82142665 272.46132648 427.81209588 C268.55462571 427.80527649 264.64796471 427.81580091 260.74127197 427.82403564 C253.09924184 427.83734486 245.45730033 427.8345077 237.8152668 427.82579772 C231.60137978 427.81900999 225.38751752 427.81810916 219.17362785 427.82136917 C218.28769196 427.82182887 217.40175607 427.82228857 216.48897363 427.8227622 C214.68894227 427.82372142 212.88891092 427.82469406 211.08887958 427.82567997 C194.22694241 427.83422576 177.36505425 427.82441274 160.50312512 427.80827887 C146.05121252 427.79487876 131.59937223 427.79720284 117.14746094 427.81103516 C100.34553063 427.82710932 83.54364324 427.83339942 66.74170631 427.82419837 C64.94815982 427.82324277 63.15461332 427.82229966 61.36106682 427.82136917 C60.47872083 427.82090634 59.59637485 427.82044352 58.6872911 427.81996667 C52.48514138 427.81738211 46.28301898 427.82173627 40.08087349 427.82880783 C32.51631695 427.83724356 24.95185375 427.83489935 17.38730783 427.8189656 C13.53161022 427.81111033 9.6760679 427.80794408 5.82037163 427.81791306 C1.63207223 427.82857775 -2.55583898 427.81579771 -6.74412537 427.8008728 C-8.55393085 427.81091105 -8.55393085 427.81091105 -10.40029806 427.82115209 C-28.4352714 427.69687253 -44.0003765 421.00437441 -56.7097168 408.27539062 C-68.72082515 395.03237373 -73.61149472 379.86031597 -73.56698608 362.32772827 C-73.5715172 361.01586693 -73.57604831 359.7040056 -73.58071673 358.35239089 C-73.59290833 354.72616197 -73.59269081 351.10002558 -73.59032798 347.47378087 C-73.58991883 343.55676568 -73.60096841 339.63977977 -73.61044312 335.72277832 C-73.62703376 328.05362071 -73.63255181 320.38449385 -73.63366787 312.7153198 C-73.63461941 306.47802111 -73.63873498 300.24073253 -73.64506912 294.00343704 C-73.66267743 276.30293223 -73.67190881 258.60245164 -73.67040817 240.90193801 C-73.67032826 239.94832678 -73.67024835 238.99471556 -73.67016602 238.01220703 C-73.67008425 237.05742543 -73.67000249 236.10264383 -73.66991825 235.11892946 C-73.66910581 219.65445627 -73.68823412 204.19008058 -73.71644275 188.72563557 C-73.74520705 172.83055334 -73.75898104 156.93551859 -73.7572552 141.04040968 C-73.75659245 132.1231338 -73.76203401 123.2059601 -73.7836113 114.28870773 C-73.80186997 106.69448077 -73.80613222 99.10040228 -73.79259245 91.50616281 C-73.78608591 87.63600961 -73.78586099 83.76614087 -73.80329895 79.89601517 C-73.81913867 76.34385038 -73.8160567 72.79219301 -73.79873069 69.24003978 C-73.7942561 67.36584654 -73.80923232 65.49163686 -73.82520998 63.61750638 C-73.68699465 46.41729776 -67.22491919 30.82711319 -55.29956055 18.41992188 C-38.55739389 3.76459752 -21.55047092 -0.04180766 0 0 Z "
     fill="#000000"
     transform="translate(73.299560546875,84.580078125)"
     id="path1" />
  <path
     d="M0 0 C7.39079855 6.26492296 7.39079855 6.26492296 10.49925232 9.3789978 C11.09786575 9.97623657 11.69647919 10.57347534 12.31323242 11.18881226 C12.94261719 11.8217923 13.57200195 12.45477234 14.22045898 13.10693359 C14.90423111 13.79055969 15.58800323 14.47418579 16.29249573 15.17852783 C18.52940983 17.416133 20.76277089 19.65724845 22.99609375 21.8984375 C24.55528737 23.45949816 26.11470339 25.02033673 27.67433167 26.58096313 C31.7617722 30.67220629 35.8461996 34.76644458 39.92999268 38.86132812 C44.1044967 43.0460949 48.28186292 47.22800241 52.45898438 51.41015625 C60.64211611 59.60398551 68.82206539 67.80098392 77 76 C72.89020754 80.89264202 68.6297098 85.52396759 64.11968994 90.04766846 C63.11802972 91.05801875 63.11802972 91.05801875 62.09613395 92.08878016 C59.87405904 94.32878857 57.64850365 96.56530405 55.42285156 98.80175781 C53.82228851 100.41350668 52.22188993 102.02541889 50.62164307 103.63748169 C45.38208105 108.9134572 40.13697315 114.18389843 34.890625 119.453125 C33.99693301 120.35076285 33.10324102 121.24840071 32.18246746 122.17323971 C23.75049322 130.6416044 15.31611177 139.10756527 6.87649918 147.56831741 C4.92706634 149.52271871 2.97767158 151.47715797 1.02832031 153.43164062 C0.30165325 154.1602137 0.30165325 154.1602137 -0.43969396 154.90350541 C-8.29401483 162.7792055 -16.13440646 170.66862655 -23.969372 178.56357709 C-32.02709056 186.68247283 -40.09828116 194.78773527 -48.18173242 202.88102221 C-52.7146601 207.4202069 -57.24146225 211.96513228 -61.75395966 216.52463531 C-65.99707301 220.81140479 -70.25646637 225.08129871 -74.52884674 229.33889389 C-76.09176352 230.90213933 -77.64871931 232.47137135 -79.1991272 234.04702377 C-81.3207793 236.20137968 -83.46308141 238.33290804 -85.61175537 240.46026611 C-86.21664976 241.08486827 -86.82154415 241.70947043 -87.44476867 242.35299993 C-92.12238678 246.91473766 -96.67827013 248.5865406 -103 250 C-104.25604034 250.29666565 -105.51208069 250.5933313 -106.80618286 250.89898682 C-108.00338959 251.14404968 -109.20059631 251.38911255 -110.43408203 251.64160156 C-111.44112183 251.8494931 -111.44112183 251.8494931 -112.46850586 252.06158447 C-114.64726712 252.50970623 -116.82736999 252.95076181 -119.0078125 253.390625 C-120.54378239 253.70256709 -122.07974208 254.01455939 -123.61569214 254.32659912 C-126.8171421 254.97553173 -130.01940499 255.62027653 -133.22216797 256.26269531 C-137.31076374 257.08367719 -141.39591074 257.92065051 -145.48047066 258.76144791 C-148.64448454 259.40991478 -151.81070374 260.04705353 -154.9776268 260.68114471 C-156.48462999 260.98482097 -157.99081361 261.29259625 -159.49609756 261.60468292 C-174.35551355 264.6770915 -174.35551355 264.6770915 -181 263 C-184.78825427 260.3401619 -185.8359092 258.86189228 -186.70489502 254.29751587 C-187.12637742 250.159137 -186.63472361 246.35569595 -185.78417969 242.30224609 C-185.64284103 241.57919785 -185.50150238 240.8561496 -185.35588074 240.1111908 C-184.890142 237.7459766 -184.40655223 235.38483731 -183.921875 233.0234375 C-183.59048596 231.36789516 -183.25995384 229.71218108 -182.93023682 228.05630493 C-182.2385513 224.59676543 -181.53829988 221.13910842 -180.83154297 217.68261719 C-179.92827406 213.26280053 -179.04385227 208.83947124 -178.16547775 204.41464806 C-177.48572784 200.99888271 -176.79737409 197.58489644 -176.10630035 194.17140579 C-175.77707065 192.54126307 -175.45017162 190.91064778 -175.12569427 189.27955246 C-174.67009853 186.9975297 -174.20328292 184.71808244 -173.73339844 182.43896484 C-173.53682899 181.43821678 -173.53682899 181.43821678 -173.33628845 180.41725159 C-171.63481593 172.31219351 -167.95829839 167.52029595 -162.2233429 161.86257935 C-161.53065927 161.16733245 -160.83797565 160.47208555 -160.12430161 159.75577056 C-157.80518565 157.4317196 -155.47552222 155.11854241 -153.14575195 152.80517578 C-151.47966161 151.13993177 -149.81423181 149.47402666 -148.14941406 147.80751038 C-143.62956961 143.28680478 -139.10053155 138.77541208 -134.56980157 134.26561975 C-130.31551702 130.02818254 -126.06814492 125.78383274 -121.82073428 121.53950809 C-113.40937972 113.13471446 -104.99135175 104.73663795 -96.5690918 96.34277344 C-88.38913961 88.19037108 -80.21235375 80.03481428 -72.03979492 71.875 C-71.53578084 71.37177409 -71.03176676 70.86854818 -70.51247952 70.35007299 C-67.98393177 67.82544044 -65.45544603 65.3007458 -62.92699111 62.77602029 C-41.96093233 41.84104628 -20.98391394 20.91707744 0 0 Z "
     fill="#000000"
     transform="translate(368,67)"
     id="path2" />
  <path
     d="M0 0 C11.41872561 7.82240709 19.80855881 18.41997283 23.52734375 31.89453125 C26.22470976 47.64778717 24.8097184 62.59589165 15.99926758 76.19067383 C9.27968026 85.68284926 0.3589135 93.70367038 -7.875 101.875 C-9.03864753 103.03361712 -10.20206046 104.1924699 -11.36523438 105.3515625 C-14.17830065 108.15375764 -16.99449374 110.95277314 -19.8125 113.75 C-22.73507439 112.42958555 -24.80508209 111.00571935 -27.06488037 108.73812866 C-27.68461227 108.12114609 -28.30434418 107.50416351 -28.94285583 106.8684845 C-29.61107864 106.19307114 -30.27930145 105.51765778 -30.96777344 104.82177734 C-31.68036819 104.10947464 -32.39296295 103.39717194 -33.12715149 102.6632843 C-35.48016451 100.3088785 -37.8260151 97.94746875 -40.171875 95.5859375 C-41.80239975 93.95168245 -43.43336676 92.31786854 -45.0647583 90.68447876 C-49.35666676 86.38493527 -53.64253514 82.07941935 -57.92718506 77.77264404 C-62.30069822 73.37866977 -66.67988079 68.99035397 -71.05859375 64.6015625 C-79.64879625 55.98991236 -88.2326302 47.37194389 -96.8125 38.75 C-95.46294428 35.95556026 -94.18821563 33.86877323 -92.00610352 31.65307617 C-91.44113663 31.07534958 -90.87616974 30.49762299 -90.29408264 29.90238953 C-89.68269943 29.28878067 -89.07131622 28.67517181 -88.44140625 28.04296875 C-87.48596169 27.07753899 -87.48596169 27.07753899 -86.51121521 26.09260559 C-85.159623 24.7308945 -83.80530811 23.37188123 -82.44848633 22.01538086 C-80.40307302 19.96563252 -78.37416049 17.90049539 -76.34570312 15.83398438 C-55.4879183 -5.20614526 -27.82364872 -16.58790517 0 0 Z "
     fill="#000000"
     transform="translate(487.8125,7.25)"
     id="path3" />
  <path
     style="fill:#0000ff;stroke-width:0.634449"
     d="M 55.734577,511.65779 C 45.335694,510.444 35.452486,506.72277 26.861496,500.7865 11.861276,490.42152 2.9645881,475.37378 0.66700626,456.48149 0.12668625,452.03861 -0.01527936,409.42942 0.125872,294.06691 L 0.31722429,137.67534 1.7066778,132.80567 C 9.1321868,106.78122 26.973174,91.066206 54.641195,86.178943 60.818261,85.087829 66.780896,85.016109 151.31599,85.016109 h 90.09169 l 2.725,1.454989 c 4.19772,2.241342 7.53332,5.602528 9.45234,9.524857 2.30543,4.712135 2.8543,14.013515 1.13277,19.196565 -1.85644,5.58919 -7.78903,10.52223 -14.36592,11.94547 -1.58306,0.34258 -39.7291,0.77126 -89.85526,1.0098 -96.288615,0.4582 -87.792236,0.0764 -97.34716,4.37472 -4.280668,1.92569 -6.947779,5.18514 -8.596057,10.50517 -1.022385,3.29987 -1.093666,13.43344 -1.093666,155.48037 0,147.53534 0.03496,152.05183 1.203204,155.43991 1.679945,4.87209 4.251809,8.38279 7.817061,10.6706 6.544126,4.19936 -4.839787,3.92171 160.796798,3.92171 108.79349,0 151.12663,-0.19665 153.56187,-0.71336 7.80629,-1.65632 12.81679,-5.99323 15.27094,-13.21797 l 1.40986,-4.15045 0.31957,-90.83043 0.31958,-90.83042 1.91112,-2.71887 c 2.88133,-4.09915 8.0207,-7.98399 12.15055,-9.18457 4.9652,-1.44342 12.85375,-0.99487 16.61355,0.94467 4.35135,2.2447 7.99014,6.01944 10.00218,10.37586 l 1.83066,3.96371 0.17726,88.8228 c 0.15615,78.24161 0.0579,89.64342 -0.82498,95.71143 -4.59431,31.57753 -26.067,51.93988 -57.96159,54.96445 -8.01023,0.7596 -305.807315,0.74118 -312.322783,-0.0193 z"
     id="path4" />
  <path
     style="fill:#0000ff;stroke-width:0.634449"
     d="m 189.16632,330.27102 c -4.66226,-1.18416 -7.71403,-6.12129 -7.71403,-12.47974 0,-1.70087 3.15645,-18.79786 7.01432,-37.99331 6.15507,-30.62548 7.29083,-35.48372 9.27156,-39.65918 2.21355,-4.6663 3.8171,-6.31742 82.87419,-85.33334 44.33933,-44.31623 82.27969,-82.120157 84.31192,-84.008723 l 3.69495,-3.433756 37.74739,37.667199 c 20.76106,20.71695 37.74738,37.83489 37.74738,38.03985 0,1.09649 -15.54901,16.97319 -86.91945,88.75127 -44.3213,44.57443 -79.63554,79.5958 -81.30398,80.62967 -4.56987,2.8318 -8.95708,3.93306 -44.47746,11.16457 -33.68791,6.85843 -38.47716,7.61292 -42.24679,6.65549 z"
     id="path5" />
  <path
     style="fill:#0000ff;stroke-width:0.634449"
     d="m 464.66351,118.62683 c -1.35725,-0.88064 -18.36058,-17.65388 -37.78518,-37.273849 l -35.31746,-35.672684 1.32333,-2.362553 c 1.87007,-3.33865 24.51143,-25.563045 30.6644,-30.099681 6.63896,-4.8949631 15.07075,-9.223597 22.19063,-11.392026 4.93297,-1.50238511 6.7855,-1.73157941 14.23599,-1.76127579 9.80358,-0.0390755 13.64758,0.78049667 22.03355,4.69773129 11.55401,5.3970895 21.30929,15.6279765 26.61104,27.9084425 2.74766,6.364416 3.59807,12.398007 3.21969,22.843315 -0.45464,12.550484 -3.26767,20.71998 -10.48619,30.453532 -3.72787,5.026704 -32.33367,34.260218 -33.52458,34.260218 -0.38363,0 -1.80798,-0.72053 -3.16522,-1.60117 z"
     id="path6" />
</svg>
